<svg width="66" height="66" viewBox="0 0 66 66" fill="none" xmlns="http://www.w3.org/2000/svg">
<g filter="url(#filter0_f)">
<path d="M58 8H8V58H58V8Z" stroke="#F0FF4C" stroke-opacity="0.8" stroke-width="6" stroke-linecap="round" stroke-linejoin="round"/>
</g>
<path d="M58 8H8V58H58V8Z" stroke="#EAFF00" stroke-width="4" stroke-linecap="round" stroke-linejoin="round"/>
<path d="M58 8H8V58H58V8Z" stroke="black" stroke-width="2" stroke-linecap="round" stroke-linejoin="round"/>
<g filter="url(#filter1_f)">
<path d="M21.8818 35.3366L22.7157 32.4548L22.7106 32.4533L21.8818 35.3366ZM18.7178 33.8073L16.6764 36.0057L16.6866 36.0151L16.6968 36.0244L18.7178 33.8073ZM18.9375 29.0612L20.8363 31.3838L20.8381 31.3823L18.9375 29.0612ZM24.4307 28.5778L23.0982 31.2657L23.1073 31.2701L24.4307 28.5778ZM26.0303 29.984L23.4891 31.5785L23.4947 31.5874L23.5003 31.5963L26.0303 29.984ZM26.6016 31.944V34.944H29.6016V31.944H26.6016ZM24.9053 31.944H21.9053V34.944H24.9053V31.944ZM24.167 30.1247L22.1543 32.3493L22.1616 32.3559L22.1689 32.3625L24.167 30.1247ZM20.1328 30.0104L21.985 32.3704L21.9889 32.3673L20.1328 30.0104ZM20.0977 32.8581L18.1862 35.1703L18.2029 35.1841L18.2198 35.1977L20.0977 32.8581ZM22.3564 33.8424L21.5428 36.73L21.547 36.7312L22.3564 33.8424ZM24.8525 34.8356L23.2943 37.3992L23.309 37.4081L23.3238 37.4169L24.8525 34.8356ZM26.1885 36.0924L23.6132 37.6313L23.6201 37.6428L23.6271 37.6543L26.1885 36.0924ZM25.415 40.2848L27.2425 42.664L27.2533 42.6556L25.415 40.2848ZM19.7109 40.7155L18.4886 43.4552L18.4974 43.4591L18.5063 43.463L19.7109 40.7155ZM17.9443 39.3268L15.4866 41.0472L15.4924 41.0554L15.4982 41.0636L17.9443 39.3268ZM17.3291 37.3317V34.3317H14.3291V37.3317H17.3291ZM19.0254 37.3317H22.0254V34.3317H19.0254V37.3317ZM19.8779 39.1686L18.0127 41.5183L18.026 41.5289L18.0395 41.5393L19.8779 39.1686ZM24.2725 36.3561L22.4176 38.714L22.4274 38.7217L22.4372 38.7293L24.2725 36.3561ZM22.7106 32.4533C21.443 32.089 20.9029 31.7397 20.7387 31.5901L16.6968 36.0244C17.8569 37.0819 19.4261 37.7522 21.053 38.2198L22.7106 32.4533ZM20.7591 31.6089C20.729 31.5809 20.7177 31.5655 20.7169 31.5644C20.7166 31.5638 20.7219 31.5714 20.728 31.5853C20.7307 31.5916 20.7329 31.5976 20.7345 31.6027C20.7353 31.6051 20.7358 31.6071 20.7362 31.6085C20.7365 31.6099 20.7367 31.6106 20.7367 31.6105C20.7367 31.6105 20.7359 31.6066 20.7351 31.5983C20.7343 31.5899 20.7334 31.5764 20.7334 31.5573H14.7334C14.7334 33.2873 15.4127 34.8322 16.6764 36.0057L20.7591 31.6089ZM20.7334 31.5573C20.7334 31.5053 20.7385 31.4796 20.7397 31.4738C20.7408 31.4689 20.7402 31.4732 20.7365 31.4808C20.7329 31.4883 20.7325 31.4862 20.743 31.4733C20.7541 31.4595 20.7816 31.4285 20.8363 31.3838L17.0387 26.7386C15.5623 27.9456 14.7334 29.6197 14.7334 31.5573H20.7334ZM20.8381 31.3823C20.9944 31.2544 21.3211 31.068 22.084 31.068V25.068C20.2687 25.068 18.4978 25.5438 17.0369 26.7401L20.8381 31.3823ZM22.084 31.068C22.5695 31.068 22.8844 31.1597 23.0982 31.2656L25.7631 25.8899C24.6058 25.3162 23.3563 25.068 22.084 25.068V31.068ZM23.1073 31.2701C23.3463 31.3876 23.4372 31.4958 23.4891 31.5785L28.5715 28.3896C27.8734 27.277 26.8978 26.4477 25.754 25.8854L23.1073 31.2701ZM23.5003 31.5963C23.5741 31.712 23.6016 31.806 23.6016 31.944H29.6016C29.6016 30.6641 29.2482 29.4514 28.5602 28.3718L23.5003 31.5963ZM26.6016 28.944H24.9053V34.944H26.6016V28.944ZM27.9053 31.944C27.9053 30.4776 27.4061 28.9949 26.165 27.8869L22.1689 32.3625C22.076 32.2795 21.9917 32.1623 21.9409 32.0371C21.8946 31.9232 21.9053 31.875 21.9053 31.944H27.9053ZM26.1797 27.9001C24.9672 26.803 23.46 26.4567 22.084 26.4567V32.4567C22.2898 32.4567 22.3688 32.4829 22.361 32.4804C22.3552 32.4785 22.3285 32.4693 22.2882 32.4466C22.2473 32.4236 22.2007 32.3913 22.1543 32.3493L26.1797 27.9001ZM22.084 26.4567C20.8397 26.4567 19.4484 26.7308 18.2767 27.6535L21.9889 32.3673C21.9354 32.4094 21.8866 32.4384 21.8488 32.457C21.8117 32.4754 21.7903 32.4814 21.7912 32.4812C21.7969 32.4795 21.8838 32.4567 22.084 32.4567V26.4567ZM18.2807 27.6504C17.0101 28.6475 16.4385 30.0702 16.4385 31.5309H22.4385C22.4385 31.5644 22.4313 31.7113 22.341 31.9092C22.2464 32.1162 22.1088 32.2732 21.985 32.3704L18.2807 27.6504ZM16.4385 31.5309C16.4385 33.0376 17.1305 34.2975 18.1862 35.1703L22.0091 30.5458C22.0638 30.591 22.1862 30.7101 22.2901 30.9193C22.3977 31.1359 22.4385 31.3551 22.4385 31.5309H16.4385ZM18.2198 35.1977C19.1522 35.946 20.3878 36.4045 21.5428 36.73L23.1701 30.9549C22.7298 30.8308 22.4124 30.7168 22.1949 30.622C21.9653 30.522 21.9222 30.4757 21.9755 30.5185L18.2198 35.1977ZM21.547 36.7312C22.4843 36.9938 23.0251 37.2356 23.2943 37.3992L26.4108 32.272C25.4846 31.7091 24.3614 31.2887 23.1659 30.9537L21.547 36.7312ZM23.3238 37.4169C23.6041 37.5828 23.6396 37.6755 23.6132 37.6313L28.7637 34.5536C28.1631 33.5485 27.3081 32.8032 26.3813 32.2543L23.3238 37.4169ZM23.6271 37.6543C23.6145 37.6335 23.6118 37.6208 23.6139 37.6292C23.6168 37.6402 23.6279 37.689 23.6279 37.7887H29.6279C29.6279 36.6747 29.372 35.5509 28.7499 34.5306L23.6271 37.6543ZM23.6279 37.7887C23.6279 37.8526 23.6218 37.8854 23.6199 37.8939C23.6183 37.9012 23.6193 37.8941 23.6264 37.8794C23.6336 37.8647 23.6399 37.8569 23.6387 37.8583C23.6369 37.8606 23.6201 37.8804 23.5768 37.914L27.2533 42.6556C28.8064 41.4514 29.6279 39.7384 29.6279 37.7887H23.6279ZM23.5876 37.9057C23.4518 38.0099 23.0804 38.2165 22.1719 38.2165V44.2165C23.9704 44.2165 25.7611 43.8019 27.2425 42.664L23.5876 37.9057ZM22.1719 38.2165C21.6837 38.2165 21.2762 38.1261 20.9156 37.968L18.5063 43.463C19.6691 43.9729 20.9022 44.2165 22.1719 44.2165V38.2165ZM20.9333 37.9758C20.582 37.8191 20.4487 37.672 20.3905 37.59L15.4982 41.0636C16.272 42.1535 17.3164 42.9322 18.4886 43.4552L20.9333 37.9758ZM20.402 37.6064C20.3597 37.546 20.3291 37.4868 20.3291 37.3317H14.3291C14.3291 38.6649 14.7086 39.9358 15.4866 41.0472L20.402 37.6064ZM17.3291 40.3317H19.0254V34.3317H17.3291V40.3317ZM16.0254 37.3317C16.0254 38.951 16.6748 40.4562 18.0127 41.5183L21.7431 36.8189C21.797 36.8617 21.8905 36.9589 21.9597 37.1081C22.0263 37.2514 22.0254 37.3457 22.0254 37.3317H16.0254ZM18.0395 41.5393C19.2843 42.5047 20.7608 42.8366 22.1719 42.8366V36.8366C21.9236 36.8366 21.7828 36.8073 21.7208 36.7892C21.666 36.7732 21.6779 36.7681 21.7164 36.798L18.0395 41.5393ZM22.1719 42.8366C23.4131 42.8366 24.8439 42.5918 26.0432 41.6739L22.3963 36.9094C22.5238 36.8118 22.6086 36.7937 22.5804 36.8012C22.5462 36.8103 22.4211 36.8366 22.1719 36.8366V42.8366ZM26.0432 41.6739C27.3007 40.7113 27.9316 39.3139 27.9316 37.8063H21.9316C21.9316 37.7348 21.9472 37.5622 22.0483 37.3512C22.1517 37.1356 22.2921 36.9892 22.3963 36.9094L26.0432 41.6739ZM27.9316 37.8063C27.9316 36.3867 27.3831 34.9693 26.1077 33.983L22.4372 38.7293C22.2891 38.6147 22.1374 38.4385 22.0357 38.215C21.9393 38.0027 21.9316 37.8446 21.9316 37.8063H27.9316ZM26.1273 33.9982C25.1986 33.2677 23.9126 32.8011 22.7157 32.4548L21.048 38.2184C21.5495 38.3635 21.9151 38.4935 22.1684 38.6015C22.4415 38.7179 22.486 38.7678 22.4176 38.714L26.1273 33.9982ZM37.9834 38.2545L40.7286 39.4646L40.7315 39.4579L37.9834 38.2545ZM36.3311 40.3463L34.5931 37.9011L31.3197 40.2276L34.4792 42.7066L36.3311 40.3463ZM38.6162 42.1393L40.6517 44.3431L43.2391 41.9533L40.4681 39.7791L38.6162 42.1393ZM37.4648 43.2028L35.5982 45.5514L37.6114 47.1514L39.5004 45.4066L37.4648 43.2028ZM34.7666 41.0583L36.6332 38.7097L35.4747 37.7889L34.039 38.1478L34.7666 41.0583ZM30.75 40.4782L29.1345 43.006L29.1412 43.0104L29.148 43.0146L30.75 40.4782ZM28.9307 38.36L26.2103 39.6249L26.2152 39.6353L26.2202 39.6458L28.9307 38.36ZM28.2715 35.1696H25.2715V35.1841L25.2716 35.1987L28.2715 35.1696ZM30.7236 28.8239L32.3392 31.3517L32.344 31.3486L30.7236 28.8239ZM36.1289 28.8151L34.5134 31.343L34.522 31.3484L36.1289 28.8151ZM37.9395 30.9684L35.2037 32.1995L35.2066 32.2059L37.9395 30.9684ZM35.9795 30.7487L33.5548 32.5153L33.5619 32.5251L33.5691 32.5348L35.9795 30.7487ZM30.8994 30.7399L28.5056 28.9316L28.5036 28.9343L30.8994 30.7399ZM29.959 34.1149L26.9592 34.0783L26.959 34.0966V34.1149H29.959ZM30.873 38.5182L28.441 40.2747L28.449 40.2857L30.873 38.5182ZM35.9619 38.5973L38.3555 40.4058L38.3619 40.3973L35.9619 38.5973ZM36.8848 35.1784L39.8846 35.2139L39.8848 35.1962V35.1784H36.8848ZM35.5723 35.0553C35.5723 35.9827 35.4242 36.6199 35.2353 37.0511L40.7315 39.4579C41.3278 38.0962 41.5723 36.6006 41.5723 35.0553H35.5723ZM35.2383 37.0445C35.0373 37.5005 34.8103 37.7467 34.5931 37.9011L38.069 42.7916C39.2698 41.9382 40.1444 40.7899 40.7285 39.4646L35.2383 37.0445ZM34.4792 42.7066L36.7644 44.4995L40.4681 39.7791L38.1829 37.9861L34.4792 42.7066ZM36.5807 39.9355L35.4293 40.999L39.5004 45.4066L40.6517 44.3431L36.5807 39.9355ZM39.3315 40.8542L36.6332 38.7097L32.9 43.4068L35.5982 45.5514L39.3315 40.8542ZM34.039 38.1478C33.8728 38.1894 33.6731 38.2165 33.4307 38.2165V44.2165C34.1257 44.2165 34.8167 44.1381 35.4942 43.9687L34.039 38.1478ZM33.4307 38.2165C32.935 38.2165 32.6074 38.103 32.352 37.9417L29.148 43.0146C30.4512 43.8377 31.9107 44.2165 33.4307 44.2165V38.2165ZM32.3655 37.9503C32.1047 37.7836 31.857 37.5293 31.6412 37.0743L26.2202 39.6458C26.8715 41.0189 27.8367 42.1767 29.1345 43.006L32.3655 37.9503ZM31.651 37.0952C31.4342 36.629 31.2797 36.0003 31.2713 35.1405L25.2716 35.1987C25.2867 36.7529 25.5716 38.2512 26.2103 39.6249L31.651 37.0952ZM31.2715 35.1696V34.2467H25.2715V35.1696H31.2715ZM31.2715 34.2467C31.2715 33.3644 31.4241 32.7128 31.6453 32.2248L26.1808 29.7471C25.5466 31.1459 25.2715 32.6682 25.2715 34.2467H31.2715ZM31.6453 32.2248C31.8631 31.7446 32.1063 31.5006 32.3392 31.3517L29.1081 26.296C27.7824 27.1433 26.8185 28.3407 26.1808 29.7471L31.6453 32.2248ZM32.344 31.3486C32.6068 31.18 32.9317 31.068 33.4131 31.068V25.068C31.8789 25.068 30.4108 25.4599 29.1033 26.2991L32.344 31.3486ZM33.4131 31.068C33.9398 31.068 34.2708 31.1879 34.5134 31.3429L37.7444 26.2872C36.4284 25.4462 34.9488 25.068 33.4131 25.068V31.068ZM34.522 31.3484C34.7598 31.4993 34.9962 31.7384 35.2037 32.1995L40.6752 29.7373C40.039 28.3234 39.0683 27.127 37.7359 26.2818L34.522 31.3484ZM35.2066 32.2059C35.418 32.6729 35.5723 33.3247 35.5723 34.2379H41.5723C41.5723 32.6551 41.3046 31.1272 40.6723 29.7309L35.2066 32.2059ZM35.5723 34.2379V35.0553H41.5723V34.2379H35.5723ZM39.8848 34.2292C39.8848 32.3776 39.5219 30.4904 38.3899 28.9626L33.5691 32.5348C33.6441 32.6359 33.8848 33.069 33.8848 34.2292H39.8848ZM38.4042 28.9821C37.1812 27.3035 35.3774 26.5182 33.4131 26.5182V32.5182C33.5074 32.5182 33.5631 32.5269 33.5878 32.5321C33.6112 32.5369 33.6096 32.5391 33.5927 32.531C33.575 32.5225 33.5572 32.5108 33.5443 32.4998C33.5321 32.4895 33.5368 32.4905 33.5548 32.5153L38.4042 28.9821ZM33.4131 26.5182C31.4549 26.5182 29.7133 27.333 28.5056 28.9316L33.2932 32.5482C33.3215 32.5107 33.3361 32.4992 33.3331 32.5017C33.3293 32.5049 33.3175 32.5136 33.3006 32.5218C33.284 32.5299 33.2774 32.5303 33.2886 32.5278C33.3011 32.5252 33.3402 32.5182 33.4131 32.5182V26.5182ZM28.5036 28.9343C27.3773 30.4288 26.9814 32.2599 26.9592 34.0783L32.9588 34.1515C32.9717 33.0871 33.2027 32.6682 33.2952 32.5454L28.5036 28.9343ZM26.959 34.1149V35.0553H32.959V34.1149H26.959ZM26.959 35.0553C26.959 36.9017 27.3393 38.7492 28.441 40.2747L33.3051 36.7617C33.1881 36.5997 32.959 36.1387 32.959 35.0553H26.959ZM28.449 40.2857C29.6574 41.9429 31.4316 42.7838 33.4307 42.7838V36.7838C33.3519 36.7838 33.3091 36.7763 33.2945 36.7731C33.2813 36.7702 33.2874 36.7702 33.3044 36.7786C33.3217 36.7872 33.334 36.7964 33.3381 36.7999C33.3412 36.8026 33.3261 36.7905 33.2971 36.7507L28.449 40.2857ZM33.4307 42.7838C35.3534 42.7838 37.129 42.0292 38.3555 40.4058L33.5683 36.7888C33.552 36.8104 33.5485 36.8104 33.5609 36.8002C33.5739 36.7895 33.5911 36.7786 33.6076 36.7708C33.6233 36.7634 33.624 36.7658 33.6007 36.7705C33.5761 36.7756 33.5219 36.7838 33.4307 36.7838V42.7838ZM38.3619 40.3973C39.4875 38.8966 39.8629 37.0376 39.8846 35.2139L33.885 35.1428C33.8714 36.284 33.6317 36.7043 33.5619 36.7973L38.3619 40.3973ZM39.8848 35.1784V34.2292H33.8848V35.1784H39.8848ZM42.8701 39.6608H39.8701V42.6608H42.8701V39.6608ZM48.9346 39.6608H51.9346V36.6608H48.9346V39.6608ZM48.9346 41.0407V44.0407H51.9346V41.0407H48.9346ZM41.1738 41.0407H38.1738V44.0407H41.1738V41.0407ZM41.1738 28.2438V25.2438H38.1738V28.2438H41.1738ZM42.8701 28.2438H45.8701V25.2438H42.8701V28.2438ZM42.8701 42.6608H48.9346V36.6608H42.8701V42.6608ZM45.9346 39.6608V41.0407H51.9346V39.6608H45.9346ZM48.9346 38.0407H41.1738V44.0407H48.9346V38.0407ZM44.1738 41.0407V28.2438H38.1738V41.0407H44.1738ZM41.1738 31.2438H42.8701V25.2438H41.1738V31.2438ZM39.8701 28.2438V39.6608H45.8701V28.2438H39.8701Z" fill="#F0FF4C" fill-opacity="0.8"/>
</g>
<path d="M21.9356 35.3283L22.4914 33.4071L22.4881 33.4061L21.9356 35.3283ZM18.7715 33.799L17.4106 35.2646L17.4174 35.2709L17.4242 35.2771L18.7715 33.799ZM18.9912 29.0529L20.2571 30.6013L20.2583 30.6003L18.9912 29.0529ZM24.4844 28.5695L23.5961 30.3614L23.6022 30.3644L24.4844 28.5695ZM26.084 29.9757L24.3898 31.0387L24.3974 31.0506L26.084 29.9757ZM26.6553 31.9357V33.9357H28.6553V31.9357H26.6553ZM24.959 31.9357H22.959V33.9357H24.959V31.9357ZM24.2207 30.1164L22.8789 31.5995L22.8887 31.6082L24.2207 30.1164ZM20.1865 30.0021L21.4213 31.5754L21.4239 31.5734L20.1865 30.0021ZM20.1514 32.8498L18.8771 34.3912L18.8882 34.4005L18.8995 34.4095L20.1514 32.8498ZM22.4102 33.8341L21.8678 35.7592L21.8705 35.76L22.4102 33.8341ZM24.9063 34.8273L23.8674 36.5363L23.8772 36.5423L23.8871 36.5482L24.9063 34.8273ZM26.2422 36.0841L24.5254 37.11L24.53 37.1177L24.5346 37.1254L26.2422 36.0841ZM25.4688 40.2765L26.6871 41.8626L26.6943 41.8571L25.4688 40.2765ZM19.7647 40.7072L18.9498 42.5337L18.9615 42.5389L19.7647 40.7072ZM17.9981 39.3185L16.3596 40.4655L16.3673 40.4764L17.9981 39.3185ZM17.3828 37.3234V35.3234H15.3828V37.3234H17.3828ZM19.0791 37.3234H21.0791V35.3234H19.0791V37.3234ZM19.9317 39.1603L18.6882 40.7268L18.6971 40.7338L18.706 40.7407L19.9317 39.1603ZM24.3262 36.3478L23.0896 37.9197L23.0961 37.9248L23.1027 37.9299L24.3262 36.3478ZM22.4881 33.4061C21.1606 33.0245 20.4489 32.6218 20.1188 32.3209L17.4242 35.2771C18.4183 36.1832 19.816 36.8 21.383 37.2504L22.4881 33.4061ZM20.1324 32.3334C19.8811 32.1001 19.7871 31.88 19.7871 31.549H15.7871C15.7871 32.9992 16.3494 34.2791 17.4106 35.2646L20.1324 32.3334ZM19.7871 31.549C19.7871 31.161 19.9035 30.8904 20.2571 30.6013L17.7254 27.5045C16.4735 28.5279 15.7871 29.9213 15.7871 31.549H19.7871ZM20.2583 30.6003C20.632 30.2943 21.1994 30.0597 22.1377 30.0597V26.0597C20.4979 26.0597 18.9676 26.4873 17.7241 27.5055L20.2583 30.6003ZM22.1377 30.0597C22.7544 30.0597 23.2251 30.1775 23.5961 30.3614L25.3727 26.7776C24.3726 26.2818 23.2789 26.0597 22.1377 26.0597V30.0597ZM23.6022 30.3644C23.9919 30.556 24.2303 30.7844 24.3899 31.0387L27.7781 28.9128C27.1877 27.9718 26.3596 27.2627 25.3666 26.7746L23.6022 30.3644ZM24.3974 31.0506C24.5735 31.3269 24.6553 31.6073 24.6553 31.9357H28.6553C28.6553 30.8461 28.3562 29.8199 27.7706 28.9009L24.3974 31.0506ZM26.6553 29.9357H24.959V33.9357H26.6553V29.9357ZM26.959 31.9357C26.959 30.7003 26.5442 29.5097 25.5527 28.6245L22.8887 31.6082C22.9087 31.6261 22.914 31.6352 22.9212 31.6528C22.9314 31.6779 22.959 31.7608 22.959 31.9357H26.959ZM25.5625 28.6333C24.5901 27.7535 23.3539 27.4484 22.1377 27.4484V31.4484C22.7145 31.4484 22.8669 31.5886 22.8789 31.5994L25.5625 28.6333ZM22.1377 27.4484C21.0309 27.4484 19.8865 27.6927 18.9492 28.4308L21.4239 31.5734C21.424 31.5733 21.5805 31.4484 22.1377 31.4484V27.4484ZM18.9518 28.4288C17.9505 29.2146 17.4922 30.332 17.4922 31.5226H21.4922C21.4922 31.4785 21.4961 31.4571 21.4968 31.454C21.4972 31.4516 21.4949 31.4639 21.4851 31.4855C21.475 31.5074 21.4614 31.5297 21.446 31.5489C21.431 31.5678 21.4204 31.5761 21.4213 31.5754L18.9518 28.4288ZM17.4922 31.5226C17.4922 32.7009 18.0268 33.6883 18.8771 34.3912L21.4257 31.3083C21.3889 31.2779 21.4156 31.2901 21.4482 31.3558C21.4637 31.3869 21.4757 31.4208 21.4834 31.4544C21.4909 31.4875 21.4922 31.5116 21.4922 31.5226H17.4922ZM18.8995 34.4095C19.6695 35.0275 20.7442 35.4426 21.8678 35.7592L22.9526 31.9091C21.955 31.628 21.5239 31.3868 21.4033 31.29L18.8995 34.4095ZM21.8705 35.76C22.8509 36.0347 23.4888 36.3062 23.8674 36.5363L25.9451 33.1183C25.1284 32.6219 24.1023 32.2313 22.9498 31.9083L21.8705 35.76ZM23.8871 36.5482C24.2751 36.7779 24.4473 36.9793 24.5254 37.11L27.959 35.0582C27.4629 34.228 26.7444 33.5915 25.9254 33.1064L23.8871 36.5482ZM24.5346 37.1254C24.6081 37.2459 24.6817 37.4392 24.6817 37.7804H28.6817C28.6817 36.8209 28.4622 35.8833 27.9498 35.0429L24.5346 37.1254ZM24.6817 37.7804C24.6817 38.2092 24.5555 38.4538 24.2433 38.696L26.6943 41.8571C27.9992 40.8453 28.6817 39.4259 28.6817 37.7804H24.6817ZM24.2505 38.6904C23.8904 38.967 23.2824 39.2082 22.2256 39.2082V43.2082C23.8758 43.2082 25.4299 42.8283 26.6871 41.8626L24.2505 38.6904ZM22.2256 39.2082C21.6072 39.2082 21.0621 39.0922 20.5678 38.8755L18.9615 42.5389C19.9907 42.9901 21.0862 43.2082 22.2256 43.2082V39.2082ZM20.5795 38.8807C20.0915 38.663 19.8063 38.4106 19.6288 38.1607L16.3673 40.4764C17.0219 41.3983 17.9144 42.0717 18.9498 42.5336L20.5795 38.8807ZM19.6365 38.1716C19.4716 37.936 19.3828 37.6748 19.3828 37.3234H15.3828C15.3828 38.4602 15.7042 39.5292 16.3596 40.4654L19.6365 38.1716ZM17.3828 39.3234H19.0791V35.3234H17.3828V39.3234ZM17.0791 37.3234C17.0791 38.6608 17.6068 39.8683 18.6882 40.7268L21.1751 37.5939C21.1426 37.5681 21.1263 37.5497 21.1191 37.5408C21.1123 37.5322 21.109 37.5264 21.1064 37.5207C21.1034 37.5143 21.0791 37.4616 21.0791 37.3234H17.0791ZM18.706 40.7407C19.7273 41.5328 20.9665 41.8283 22.2256 41.8283V37.8283C21.5745 37.8283 21.2844 37.6784 21.1573 37.5799L18.706 40.7407ZM22.2256 41.8283C23.3499 41.8283 24.5314 41.6046 25.4891 40.8715L23.0578 37.6952C23.0663 37.6887 22.8825 37.8283 22.2256 37.8283V41.8283ZM25.4891 40.8715C26.4856 40.1087 26.9854 39.0121 26.9854 37.798H22.9854C22.9854 37.8285 22.9825 37.8374 22.9842 37.8297C22.986 37.8211 22.9914 37.8012 23.0038 37.7751C23.0164 37.7489 23.0315 37.7263 23.0455 37.7094C23.059 37.6931 23.0657 37.6892 23.0578 37.6952L25.4891 40.8715ZM26.9854 37.798C26.9854 36.6426 26.5464 35.5365 25.5497 34.7657L23.1027 37.9299C23.0939 37.9231 23.0752 37.9069 23.0534 37.8797C23.0314 37.8522 23.0131 37.822 22.9998 37.7928C22.9721 37.7319 22.9854 37.719 22.9854 37.798H26.9854ZM25.5628 34.7759C24.7971 34.1736 23.6742 33.7493 22.4914 33.4071L21.3797 37.2495C22.5056 37.5752 22.9763 37.8306 23.0896 37.9197L25.5628 34.7759ZM38.0371 38.2462L39.8672 39.0529L39.8692 39.0485L38.0371 38.2462ZM36.3848 40.338L35.2261 38.7078L33.0439 40.2589L35.1502 41.9115L36.3848 40.338ZM38.6699 42.131L40.027 43.6002L41.7518 42.007L39.9045 40.5575L38.6699 42.131ZM37.5186 43.1945L36.2742 44.7602L37.6163 45.8269L38.8756 44.6637L37.5186 43.1945ZM34.8203 41.05L36.0647 39.4842L35.2924 38.8704L34.3353 39.1097L34.8203 41.05ZM30.8037 40.4699L29.7267 42.1551L29.7357 42.1609L30.8037 40.4699ZM28.9844 38.3517L27.1708 39.195L27.1741 39.2019L27.1774 39.2089L28.9844 38.3517ZM28.3252 35.1613H26.3252V35.171L26.3253 35.1807L28.3252 35.1613ZM30.7774 28.8156L31.8544 30.5008L31.8576 30.4988L30.7774 28.8156ZM36.1826 28.8068L35.1056 30.492L35.1113 30.4957L36.1826 28.8068ZM37.9932 30.9601L36.1693 31.7808L36.1713 31.7851L37.9932 30.9601ZM36.0332 30.7404L34.4167 31.9181L34.4215 31.9246L34.4263 31.9311L36.0332 30.7404ZM30.9531 30.7316L29.3573 29.5261L29.3559 29.5279L30.9531 30.7316ZM30.0127 34.1066L28.0129 34.0822L28.0127 34.0944V34.1066H30.0127ZM30.9268 38.5099L29.3054 39.6809L29.3108 39.6883L30.9268 38.5099ZM36.0156 38.589L37.6114 39.7947L37.6156 39.789L36.0156 38.589ZM36.9385 35.1701L38.9384 35.1938L38.9385 35.1819V35.1701H36.9385ZM36.626 35.047C36.626 36.0774 36.4618 36.8577 36.2051 37.444L39.8692 39.0485C40.3976 37.8418 40.626 36.4893 40.626 35.047H36.626ZM36.207 37.4396C35.9422 38.0404 35.6072 38.437 35.2261 38.7078L37.5434 41.9682C38.5803 41.2313 39.3469 40.2333 39.8672 39.0529L36.207 37.4396ZM35.1502 41.9115L37.4354 43.7045L39.9045 40.5575L37.6194 38.7646L35.1502 41.9115ZM37.3129 40.6618L36.1615 41.7253L38.8756 44.6637L40.027 43.6002L37.3129 40.6618ZM38.763 41.6288L36.0647 39.4842L33.5759 42.6157L36.2742 44.7602L38.763 41.6288ZM34.3353 39.1097C34.0838 39.1725 33.8023 39.2082 33.4844 39.2082V43.2082C34.104 43.2082 34.7131 43.1383 35.3054 42.9902L34.3353 39.1097ZM33.4844 39.2082C32.818 39.2082 32.3017 39.0505 31.8717 38.7789L29.7357 42.1609C30.8643 42.8736 32.1352 43.2082 33.4844 43.2082V39.2082ZM31.8808 38.7846C31.4471 38.5075 31.0798 38.1026 30.7914 37.4945L27.1774 39.2089C27.7562 40.429 28.6018 41.4362 29.7267 42.1551L31.8808 38.7846ZM30.7979 37.5085C30.5109 36.8911 30.3346 36.1175 30.3251 35.1419L26.3253 35.1807C26.3393 36.6192 26.6024 37.9725 27.1708 39.195L30.7979 37.5085ZM30.3252 35.1613V34.2384H26.3252V35.1613H30.3252ZM30.3252 34.2384C30.3252 33.24 30.4982 32.4434 30.7883 31.8036L27.1453 30.1518C26.5799 31.3987 26.3252 32.7759 26.3252 34.2384H30.3252ZM30.7883 31.8036C31.0761 31.169 31.4394 30.7661 31.8544 30.5008L29.7003 27.1303C28.5568 27.8612 27.713 28.8997 27.1453 30.1518L30.7883 31.8036ZM31.8576 30.4988C32.2945 30.2184 32.8099 30.0597 33.4668 30.0597V26.0597C32.1081 26.0597 30.8305 26.405 29.6971 27.1324L31.8576 30.4988ZM33.4668 30.0597C34.1617 30.0597 34.6841 30.2227 35.1056 30.492L37.2597 27.1216C36.1225 26.3948 34.8344 26.0597 33.4668 26.0597V30.0597ZM35.1113 30.4957C35.5316 30.7623 35.8904 31.1609 36.1693 31.7808L39.817 30.1394C39.2522 28.8843 38.4039 27.8474 37.2539 27.1179L35.1113 30.4957ZM36.1713 31.7851C36.4529 32.407 36.626 33.2048 36.626 34.2296H40.626C40.626 32.7584 40.3772 31.3765 39.8151 30.1351L36.1713 31.7851ZM36.626 34.2296V35.047H40.626V34.2296H36.626ZM38.9385 34.2209C38.9385 32.4846 38.596 30.8397 37.6401 29.5497L34.4263 31.9311C34.6774 32.27 34.9385 32.9454 34.9385 34.2209H38.9385ZM37.6497 29.5627C36.6351 28.1702 35.1474 27.5099 33.4668 27.5099V31.5099C34.0127 31.5099 34.236 31.67 34.4167 31.9181L37.6497 29.5627ZM33.4668 27.5099C31.8078 27.5099 30.3674 28.1888 29.3573 29.5261L32.549 31.9371C32.7693 31.6455 33.0047 31.5099 33.4668 31.5099V27.5099ZM29.3559 29.5279C28.402 30.7937 28.0335 32.3894 28.0129 34.0822L32.0126 34.131C32.0271 32.9409 32.2856 32.2867 32.5504 31.9353L29.3559 29.5279ZM28.0127 34.1066V35.047H32.0127V34.1066H28.0127ZM28.0127 35.047C28.0127 36.7662 28.3678 38.3827 29.3054 39.6809L32.5481 37.3389C32.267 36.9497 32.0127 36.2575 32.0127 35.047H28.0127ZM29.3108 39.6883C30.3214 41.0743 31.7884 41.7755 33.4844 41.7755V37.7755C33.0007 37.7755 32.7626 37.633 32.5428 37.3316L29.3108 39.6883ZM33.4844 41.7755C35.1295 41.7755 36.5945 41.1406 37.6114 39.7947L34.4199 37.3834C34.2415 37.6195 34.019 37.7755 33.4844 37.7755V41.7755ZM37.6156 39.789C38.5652 38.5229 38.9181 36.9037 38.9384 35.1938L34.9386 35.1464C34.9238 36.4013 34.6614 37.0614 34.4156 37.389L37.6156 39.789ZM38.9385 35.1701V34.2209H34.9385V35.1701H38.9385ZM42.9238 39.6525H40.9238V41.6525H42.9238V39.6525ZM48.9883 39.6525H50.9883V37.6525H48.9883V39.6525ZM48.9883 41.0324V43.0324H50.9883V41.0324H48.9883ZM41.2276 41.0324H39.2276V43.0324H41.2276V41.0324ZM41.2276 28.2355V26.2355H39.2276V28.2355H41.2276ZM42.9238 28.2355H44.9238V26.2355H42.9238V28.2355ZM42.9238 41.6525H48.9883V37.6525H42.9238V41.6525ZM46.9883 39.6525V41.0324H50.9883V39.6525H46.9883ZM48.9883 39.0324H41.2276V43.0324H48.9883V39.0324ZM43.2276 41.0324V28.2355H39.2276V41.0324H43.2276ZM41.2276 30.2355H42.9238V26.2355H41.2276V30.2355ZM40.9238 28.2355V39.6525H44.9238V28.2355H40.9238Z" fill="#EAFF00"/>
<path d="M21.8886 35.2959L22.1249 34.4794L22.1234 34.479L21.8886 35.2959ZM18.7245 33.7666L18.1461 34.3895L18.1519 34.3948L18.7245 33.7666ZM18.9443 29.0205L19.4823 29.6786L19.4828 29.6782L18.9443 29.0205ZM24.4374 28.5371L24.0599 29.2987L24.0625 29.2999L24.4374 28.5371ZM26.037 29.9434L25.317 30.3951L25.3202 30.4002L26.037 29.9434ZM26.6083 31.9033V32.7533H27.4583V31.9033H26.6083ZM24.912 31.9033H24.062V32.7533H24.912V31.9033ZM24.1738 30.084L23.6035 30.7143L23.6077 30.718L24.1738 30.084ZM20.1396 29.9697L20.6644 30.6384L20.6655 30.6375L20.1396 29.9697ZM20.1044 32.8174L19.5628 33.4726L19.5724 33.4803L20.1044 32.8174ZM22.3632 33.8018L22.1327 34.6199L22.1339 34.6202L22.3632 33.8018ZM24.8593 34.7949L24.4178 35.5213L24.4262 35.5263L24.8593 34.7949ZM26.1953 36.0518L25.4656 36.4878L25.4695 36.4943L26.1953 36.0518ZM25.4218 40.2441L25.9396 40.9182L25.9427 40.9159L25.4218 40.2441ZM19.7177 40.6748L19.3714 41.4511L19.3764 41.4533L19.7177 40.6748ZM17.9511 39.2861L17.2547 39.7736L17.258 39.7782L17.9511 39.2861ZM17.3359 37.291V36.441H16.4859V37.291H17.3359ZM19.0322 37.291H19.8822V36.441H19.0322V37.291ZM19.8847 39.1279L19.3562 39.7937L19.3638 39.7996L19.8847 39.1279ZM24.2792 36.3154L23.7537 36.9835L23.7593 36.9878L24.2792 36.3154ZM22.1234 34.479C20.7271 34.0776 19.8182 33.6133 19.2971 33.1384L18.1519 34.3948C18.9551 35.1269 20.1556 35.6822 21.6538 36.1128L22.1234 34.479ZM19.3029 33.1437C18.8188 32.6942 18.5902 32.1694 18.5902 31.5166H16.8902C16.8902 32.6451 17.3178 33.6203 18.1462 34.3895L19.3029 33.1437ZM18.5902 31.5166C18.5902 30.7722 18.8704 30.1788 19.4823 29.6786L18.4063 28.3624C17.4127 29.1747 16.8902 30.2453 16.8902 31.5166H18.5902ZM19.4828 29.6782C20.1066 29.1674 20.9508 28.8773 22.0908 28.8773V27.1773C20.6526 27.1773 19.3992 27.5494 18.4058 28.3629L19.4828 29.6782ZM22.0908 28.8773C22.8582 28.8773 23.508 29.0251 24.0599 29.2987L24.815 27.7755C23.9958 27.3694 23.0811 27.1773 22.0908 27.1773V28.8773ZM24.0625 29.2999C24.6257 29.5768 25.0336 29.9434 25.317 30.3951L26.7571 29.4916C26.2905 28.748 25.632 28.1771 24.8124 27.7743L24.0625 29.2999ZM25.3202 30.4002C25.6141 30.8613 25.7583 31.3561 25.7583 31.9033H27.4583C27.4583 31.0326 27.2217 30.2208 26.7539 29.4866L25.3202 30.4002ZM26.6083 31.0533H24.912V32.7533H26.6083V31.0533ZM25.762 31.9033C25.762 30.9335 25.4442 30.0788 24.7399 29.4499L23.6077 30.718C23.8877 30.968 24.062 31.3262 24.062 31.9033H25.762ZM24.744 29.4537C24.0478 28.8237 23.1231 28.566 22.0908 28.566V30.266C22.8514 30.266 23.3154 30.4536 23.6035 30.7143L24.744 29.4537ZM22.0908 28.566C21.1419 28.566 20.2816 28.776 19.6137 29.3019L20.6655 30.6375C20.9351 30.4252 21.3755 30.266 22.0908 30.266V28.566ZM19.6148 29.3011C18.9231 29.8439 18.5953 30.6103 18.5953 31.4902H20.2953C20.2953 31.0694 20.4303 30.8221 20.6644 30.6384L19.6148 29.3011ZM18.5953 31.4902C18.5953 32.2909 18.9488 32.9649 19.5629 33.4725L20.646 32.1623C20.3812 31.9433 20.2953 31.7326 20.2953 31.4902H18.5953ZM19.5724 33.4803C20.1557 33.9484 21.0454 34.3135 22.1327 34.6199L22.5937 32.9836C21.56 32.6923 20.9438 32.4012 20.6365 32.1545L19.5724 33.4803ZM22.1339 34.6202C23.1637 34.9088 23.9132 35.2146 24.4178 35.5213L25.3008 34.0686C24.6101 33.6487 23.6956 33.2924 22.5926 32.9833L22.1339 34.6202ZM24.4262 35.5263C24.9381 35.8295 25.2673 36.156 25.4656 36.4878L26.9249 35.6157C26.549 34.9866 25.9876 34.4752 25.2925 34.0636L24.4262 35.5263ZM25.4695 36.4943C25.6692 36.8218 25.7847 37.229 25.7847 37.748H27.4847C27.4847 36.9663 27.3072 36.2427 26.921 35.6092L25.4695 36.4943ZM25.7847 37.748C25.7847 38.5266 25.4986 39.109 24.901 39.5724L25.9427 40.9159C26.9622 40.1254 27.4847 39.0437 27.4847 37.748H25.7847ZM24.904 39.57C24.2861 40.0447 23.4061 40.3258 22.1786 40.3258V42.0258C23.6583 42.0258 24.9404 41.6858 25.9396 40.9182L24.904 39.57ZM22.1786 40.3258C21.4105 40.3258 20.7071 40.1805 20.059 39.8963L19.3764 41.4533C20.2518 41.8371 21.189 42.0258 22.1786 42.0258V40.3258ZM20.064 39.8986C19.4186 39.6106 18.9588 39.2372 18.6442 38.794L17.258 39.7782C17.7754 40.507 18.4934 41.0593 19.3714 41.4511L20.064 39.8986ZM18.6475 38.7987C18.3415 38.3616 18.1859 37.8683 18.1859 37.291H16.4859C16.4859 38.2021 16.7404 39.0387 17.2548 39.7736L18.6475 38.7987ZM17.3359 38.141H19.0322V36.441H17.3359V38.141ZM18.1822 37.291C18.1822 38.3041 18.5698 39.1694 19.3562 39.7937L20.4132 38.4622C20.0629 38.1841 19.8822 37.8248 19.8822 37.291H18.1822ZM19.3638 39.7996C20.128 40.3923 21.0944 40.6459 22.1786 40.6459V38.9459C21.3528 38.9459 20.7898 38.7542 20.4056 38.4562L19.3638 39.7996ZM22.1786 40.6459C23.1686 40.6459 24.0632 40.4464 24.7431 39.9259L23.7099 38.576C23.4406 38.7821 22.97 38.9459 22.1786 38.9459V40.6459ZM24.7431 39.9259C25.4396 39.3929 25.7884 38.6421 25.7884 37.7656H24.0884C24.0884 38.1431 23.9626 38.3825 23.7099 38.576L24.7431 39.9259ZM25.7884 37.7656C25.7884 36.9141 25.4755 36.166 24.7992 35.643L23.7593 36.9878C23.9619 37.1445 24.0884 37.3633 24.0884 37.7656H25.7884ZM24.8048 35.6474C24.2267 35.1926 23.2912 34.8169 22.1249 34.4794L21.6524 36.1124C22.7946 36.4429 23.4529 36.7468 23.7537 36.9835L24.8048 35.6474ZM37.9902 38.2139L38.768 38.5567L38.7688 38.5548L37.9902 38.2139ZM36.3378 40.3057L35.8454 39.6128L34.9179 40.272L35.8131 40.9744L36.3378 40.3057ZM38.623 42.0986L39.1997 42.723L39.9328 42.0459L39.1477 41.4299L38.623 42.0986ZM37.4716 43.1621L36.9427 43.8275L37.5131 44.2809L38.0484 43.7865L37.4716 43.1621ZM34.7734 41.0176L35.3022 40.3522L34.974 40.0913L34.5672 40.193L34.7734 41.0176ZM30.7568 40.4375L30.299 41.1537L30.3029 41.1562L30.7568 40.4375ZM28.9374 38.3193L28.1667 38.6777L28.1695 38.6836L28.9374 38.3193ZM28.2783 35.1289L27.4282 35.1289L27.4283 35.1372L28.2783 35.1289ZM30.7304 28.7832L31.1881 29.4994L31.1895 29.4986L30.7304 28.7832ZM36.1357 28.7744L35.6779 29.4906L35.6804 29.4922L36.1357 28.7744ZM37.9462 30.9277L37.1711 31.2765L37.1719 31.2784L37.9462 30.9277ZM35.9863 30.708L35.2992 31.2086L35.3033 31.2141L35.9863 30.708ZM30.9062 30.6992L30.2279 30.1869L30.2274 30.1876L30.9062 30.6992ZM29.9658 34.0742L29.1158 34.0639V34.0742H29.9658ZM30.8798 38.4775L30.1907 38.9752L30.193 38.9783L30.8798 38.4775ZM35.9687 38.5566L36.6469 39.0691L36.6487 39.0666L35.9687 38.5566ZM36.8915 35.1377L37.7415 35.1478V35.1377H36.8915ZM37.729 35.0146C37.729 36.1634 37.5464 37.1082 37.2116 37.8729L38.7688 38.5548C39.2191 37.5265 39.429 36.3385 39.429 35.0146H37.729ZM37.2124 37.871C36.8741 38.6385 36.415 39.208 35.8454 39.6128L36.8303 40.9985C37.6786 40.3956 38.3211 39.5705 38.768 38.5567L37.2124 37.871ZM35.8131 40.9744L38.0983 42.7674L39.1477 41.4299L36.8625 39.6369L35.8131 40.9744ZM38.0462 41.4742L36.8949 42.5377L38.0484 43.7865L39.1997 42.723L38.0462 41.4742ZM38.0005 42.4967L35.3022 40.3522L34.2445 41.683L36.9427 43.8275L38.0005 42.4967ZM34.5672 40.193C34.2178 40.2803 33.8421 40.3258 33.4374 40.3258V42.0258C33.9703 42.0258 34.4852 41.9658 34.9795 41.8422L34.5672 40.193ZM33.4374 40.3258C32.5747 40.3258 31.8415 40.1173 31.2107 39.7188L30.3029 41.1562C31.2306 41.7421 32.2845 42.0258 33.4374 42.0258V40.3258ZM31.2145 39.7213C30.5821 39.3171 30.0773 38.739 29.7054 37.955L28.1695 38.6836C28.6648 39.7278 29.3729 40.5618 30.299 41.1537L31.2145 39.7213ZM29.7082 37.961C29.3402 37.1696 29.139 36.2293 29.1282 35.1207L27.4283 35.1372C27.441 36.4426 27.6792 37.6292 28.1667 38.6777L29.7082 37.961ZM29.1283 35.1289V34.2061H27.4283V35.1289H29.1283ZM29.1283 34.2061C29.1283 33.0742 29.3248 32.1107 29.694 31.2963L28.1457 30.5943C27.6595 31.6667 27.4283 32.877 27.4283 34.2061H29.1283ZM29.694 31.2963C30.0622 30.4842 30.5637 29.8985 31.1881 29.4994L30.2727 28.067C29.3386 28.664 28.6329 29.5197 28.1457 30.5943L29.694 31.2963ZM31.1895 29.4986C31.8267 29.0896 32.5612 28.8773 33.4199 28.8773V27.1773C32.2629 27.1773 31.2045 27.469 30.2713 28.0679L31.1895 29.4986ZM33.4199 28.8773C34.3082 28.8773 35.0507 29.0898 35.6779 29.4906L36.5934 28.0582C35.6621 27.463 34.5941 27.1773 33.4199 27.1773V28.8773ZM35.6804 29.4922C36.3105 29.8919 36.81 30.474 37.1711 31.2765L38.7214 30.5789C38.2387 29.5064 37.5312 28.653 36.591 28.0566L35.6804 29.4922ZM37.1719 31.2784C37.5342 32.0783 37.729 33.0441 37.729 34.1973H39.429C39.429 32.8544 39.202 31.6404 38.7205 30.5771L37.1719 31.2784ZM37.729 34.1973V35.0146H39.429V34.1973H37.729ZM37.7415 34.1885C37.7415 32.5847 37.4225 31.2185 36.6692 30.2019L35.3033 31.2141C35.7571 31.8264 36.0415 32.7806 36.0415 34.1885H37.7415ZM36.6733 30.2075C35.8984 29.144 34.7743 28.6275 33.4199 28.6275V30.3275C34.292 30.3275 34.8788 30.6314 35.2993 31.2085L36.6733 30.2075ZM33.4199 28.6275C32.105 28.6275 31.011 29.1502 30.2279 30.1869L31.5844 31.2116C32.0318 30.6193 32.6136 30.3275 33.4199 30.3275V28.6275ZM30.2274 30.1876C29.4715 31.1906 29.1347 32.5156 29.1158 34.0639L30.8157 34.0846C30.832 32.75 31.1221 31.8251 31.585 31.2108L30.2274 30.1876ZM29.1158 34.0742V35.0146H30.8158V34.0742H29.1158ZM29.1158 35.0146C29.1158 36.5876 29.4419 37.9383 30.1907 38.9752L31.5689 37.9799C31.099 37.3293 30.8158 36.3714 30.8158 35.0146H29.1158ZM30.193 38.9783C30.9763 40.0526 32.09 40.5932 33.4374 40.5932V38.8932C32.6052 38.8932 32.0138 38.59 31.5666 37.9767L30.193 38.9783ZM33.4374 40.5932C34.7633 40.5932 35.871 40.0959 36.6469 39.069L35.2905 38.0442C34.871 38.5994 34.2913 38.8932 33.4374 38.8932V40.5932ZM36.6487 39.0666C37.3959 38.0703 37.7228 36.7269 37.7415 35.1478L36.0416 35.1276C36.0252 36.5134 35.7368 37.4492 35.2887 38.0466L36.6487 39.0666ZM37.7415 35.1377V34.1885H36.0415V35.1377H37.7415ZM42.8769 39.6201H42.0269V40.4701H42.8769V39.6201ZM48.9413 39.6201H49.7913V38.7701H48.9413V39.6201ZM48.9413 41V41.85H49.7913V41H48.9413ZM41.1806 41H40.3306V41.85H41.1806V41ZM41.1806 28.2031V27.3531H40.3306V28.2031H41.1806ZM42.8769 28.2031H43.7269V27.3531H42.8769V28.2031ZM42.8769 40.4701H48.9413V38.7701H42.8769V40.4701ZM48.0913 39.6201V41H49.7913V39.6201H48.0913ZM48.9413 40.15H41.1806V41.85H48.9413V40.15ZM42.0306 41V28.2031H40.3306V41H42.0306ZM41.1806 29.0531H42.8769V27.3531H41.1806V29.0531ZM42.0269 28.2031V39.6201H43.7269V28.2031H42.0269Z" fill="black"/>
<defs>
<filter id="filter0_f" x="0.5" y="0.5" width="65" height="65" filterUnits="userSpaceOnUse" color-interpolation-filters="sRGB">
<feFlood flood-opacity="0" result="BackgroundImageFix"/>
<feBlend mode="normal" in="SourceGraphic" in2="BackgroundImageFix" result="shape"/>
<feGaussianBlur stdDeviation="2.25" result="effect1_foregroundBlur"/>
</filter>
<filter id="filter1_f" x="9.8291" y="20.568" width="46.6055" height="31.0833" filterUnits="userSpaceOnUse" color-interpolation-filters="sRGB">
<feFlood flood-opacity="0" result="BackgroundImageFix"/>
<feBlend mode="normal" in="SourceGraphic" in2="BackgroundImageFix" result="shape"/>
<feGaussianBlur stdDeviation="2.25" result="effect1_foregroundBlur"/>
</filter>
</defs>
</svg>
