<svg width="66" height="66" viewBox="0 0 66 66" fill="none" xmlns="http://www.w3.org/2000/svg">
<g filter="url(#filter0_f)">
<path d="M58 8H8V58H58V8Z" stroke="#F0FF4C" stroke-opacity="0.8" stroke-width="6" stroke-linecap="round" stroke-linejoin="round"/>
</g>
<path d="M58 8H8V58H58V8Z" stroke="#EAFF00" stroke-width="4" stroke-linecap="round" stroke-linejoin="round"/>
<path d="M58 8H8V58H58V8Z" stroke="black" stroke-width="2" stroke-linecap="round" stroke-linejoin="round"/>
<g filter="url(#filter1_f)">
<path d="M34.6355 35.1111V38.1111H37.6355V35.1111H34.6355ZM30.5222 35.1111V32.1111H27.5222V35.1111H30.5222ZM30.5222 46.5193V49.5193H33.5222V46.5193H30.5222ZM28.8435 46.5193H25.8435V49.5193H28.8435V46.5193ZM28.8435 35.1111H31.8435V32.1111H28.8435V35.1111ZM24.739 35.1111H21.739V38.1111H24.739V35.1111ZM24.739 33.7224V30.7224H21.739V33.7224H24.739ZM34.6355 33.7224H37.6355V30.7224H34.6355V33.7224ZM34.6355 32.1111H30.5222V38.1111H34.6355V32.1111ZM27.5222 35.1111V46.5193H33.5222V35.1111H27.5222ZM30.5222 43.5193H28.8435V49.5193H30.5222V43.5193ZM31.8435 46.5193V35.1111H25.8435V46.5193H31.8435ZM28.8435 32.1111H24.739V38.1111H28.8435V32.1111ZM27.739 35.1111V33.7224H21.739V35.1111H27.739ZM24.739 36.7224H34.6355V30.7224H24.739V36.7224ZM31.6355 33.7224V35.1111H37.6355V33.7224H31.6355ZM40.1638 40.8152L40.9976 37.9334L40.9926 37.9319L40.1638 40.8152ZM36.9997 39.2859L34.9584 41.4842L34.9685 41.4937L34.9788 41.503L36.9997 39.2859ZM37.2194 34.5398L39.1182 36.8624L39.1201 36.8609L37.2194 34.5398ZM42.7126 34.0564L41.3801 36.7442L41.3892 36.7487L42.7126 34.0564ZM44.3122 35.4626L41.771 37.0571L41.7766 37.066L41.7822 37.0748L44.3122 35.4626ZM44.8835 37.4226V40.4226H47.8835V37.4226H44.8835ZM43.1872 37.4226H40.1872V40.4226H43.1872V37.4226ZM42.4489 35.6032L40.4362 37.8278L40.4435 37.8345L40.4509 37.8411L42.4489 35.6032ZM38.4147 35.489L40.2669 37.849L40.2708 37.8459L38.4147 35.489ZM38.3796 38.3366L36.4682 40.6489L36.4849 40.6627L36.5018 40.6762L38.3796 38.3366ZM40.6384 39.321L39.8248 42.2086L39.8289 42.2097L40.6384 39.321ZM43.1345 40.3142L41.5762 42.8777L41.5909 42.8867L41.6058 42.8955L43.1345 40.3142ZM44.4704 41.571L41.8952 43.1099L41.902 43.1214L41.909 43.1328L44.4704 41.571ZM43.697 45.7634L45.5245 48.1426L45.5352 48.1342L43.697 45.7634ZM37.9929 46.1941L36.7705 48.9338L36.7794 48.9377L36.7882 48.9416L37.9929 46.1941ZM36.2263 44.8054L33.7686 46.5258L33.7743 46.534L33.7801 46.5422L36.2263 44.8054ZM35.611 42.8103V39.8103H32.611V42.8103H35.611ZM37.3073 42.8103H40.3073V39.8103H37.3073V42.8103ZM38.1599 44.6472L36.2947 46.9969L36.308 47.0074L36.3214 47.0178L38.1599 44.6472ZM42.5544 41.8347L40.6995 44.1925L40.7093 44.2002L40.7192 44.2078L42.5544 41.8347ZM40.9926 37.9319C39.725 37.5675 39.1848 37.2183 39.0207 37.0687L34.9788 41.503C36.1388 42.5604 37.708 43.2307 39.335 43.6984L40.9926 37.9319ZM39.0411 37.0875C39.011 37.0595 38.9997 37.044 38.9989 37.0429C38.9985 37.0424 39.0038 37.0499 39.0099 37.0639C39.0127 37.0702 39.0149 37.0762 39.0164 37.0812C39.0172 37.0837 39.0177 37.0856 39.0181 37.087C39.0185 37.0885 39.0186 37.0892 39.0186 37.0891C39.0186 37.0891 39.0178 37.0852 39.017 37.0769C39.0162 37.0685 39.0153 37.055 39.0153 37.0359H33.0153C33.0153 38.7659 33.6947 40.3108 34.9584 41.4842L39.0411 37.0875ZM39.0153 37.0359C39.0153 36.9839 39.0204 36.9581 39.0217 36.9524C39.0227 36.9475 39.0221 36.9518 39.0184 36.9594C39.0148 36.9669 39.0145 36.9648 39.0249 36.9518C39.036 36.9381 39.0635 36.9071 39.1182 36.8624L35.3206 32.2171C33.8442 33.4242 33.0153 35.0982 33.0153 37.0359H39.0153ZM39.1201 36.8609C39.2763 36.7329 39.603 36.5466 40.3659 36.5466V30.5466C38.5507 30.5466 36.7797 31.0224 35.3188 32.2186L39.1201 36.8609ZM40.3659 36.5466C40.8514 36.5466 41.1664 36.6382 41.3802 36.7442L44.045 31.3685C42.8877 30.7948 41.6382 30.5466 40.3659 30.5466V36.5466ZM41.3892 36.7487C41.6282 36.8662 41.7191 36.9744 41.771 37.0571L46.8534 33.8681C46.1553 32.7555 45.1798 31.9262 44.036 31.364L41.3892 36.7487ZM41.7822 37.0748C41.856 37.1906 41.8835 37.2845 41.8835 37.4226H47.8835C47.8835 36.1426 47.5301 34.93 46.8422 33.8504L41.7822 37.0748ZM44.8835 34.4226H43.1872V40.4226H44.8835V34.4226ZM46.1872 37.4226C46.1872 35.9561 45.688 34.4735 44.447 33.3654L40.4509 37.8411C40.3579 37.758 40.2736 37.6409 40.2228 37.5157C40.1766 37.4018 40.1872 37.3535 40.1872 37.4226H46.1872ZM44.4617 33.3786C43.2491 32.2816 41.742 31.9353 40.3659 31.9353V37.9353C40.5717 37.9353 40.6507 37.9615 40.643 37.959C40.6372 37.9571 40.6104 37.9479 40.5702 37.9252C40.5292 37.9022 40.4827 37.8699 40.4362 37.8278L44.4617 33.3786ZM40.3659 31.9353C39.1217 31.9353 37.7304 32.2094 36.5587 33.1321L40.2708 37.8459C40.2174 37.888 40.1685 37.9169 40.1307 37.9356C40.0937 37.954 40.0722 37.96 40.0731 37.9597C40.0789 37.9581 40.1657 37.9353 40.3659 37.9353V31.9353ZM36.5626 33.129C35.2921 34.1261 34.7204 35.5488 34.7204 37.0095H40.7204C40.7204 37.0429 40.7133 37.1899 40.6229 37.3877C40.5284 37.5948 40.3907 37.7518 40.2669 37.849L36.5626 33.129ZM34.7204 37.0095C34.7204 38.5162 35.4124 39.7761 36.4682 40.6489L40.291 36.0244C40.3457 36.0696 40.4681 36.1886 40.572 36.3979C40.6796 36.6145 40.7204 36.8337 40.7204 37.0095H34.7204ZM36.5018 40.6762C37.4341 41.4246 38.6697 41.8831 39.8248 42.2086L41.452 36.4335C41.0118 36.3094 40.6943 36.1954 40.4768 36.1006C40.2472 36.0006 40.2041 35.9543 40.2574 35.997L36.5018 40.6762ZM39.8289 42.2097C40.7662 42.4724 41.3071 42.7141 41.5762 42.8777L44.6927 37.7506C43.7666 37.1877 42.6434 36.7673 41.4479 36.4323L39.8289 42.2097ZM41.6058 42.8955C41.886 43.0614 41.9216 43.1541 41.8952 43.1099L47.0457 40.0321C46.445 39.027 45.59 38.2818 44.6632 37.7329L41.6058 42.8955ZM41.909 43.1328C41.8964 43.1121 41.8937 43.0994 41.8959 43.1078C41.8987 43.1188 41.9099 43.1676 41.9099 43.2673H47.9099C47.9099 42.1532 47.6539 41.0295 47.0318 40.0092L41.909 43.1328ZM41.9099 43.2673C41.9099 43.3312 41.9037 43.3639 41.9019 43.3724C41.9003 43.3798 41.9012 43.3726 41.9083 43.358C41.9155 43.3433 41.9218 43.3355 41.9207 43.3369C41.9188 43.3392 41.902 43.359 41.8587 43.3926L45.5352 48.1342C47.0883 46.93 47.9099 45.217 47.9099 43.2673H41.9099ZM41.8695 43.3842C41.7338 43.4885 41.3623 43.695 40.4538 43.695V49.695C42.2523 49.695 44.043 49.2805 45.5244 48.1426L41.8695 43.3842ZM40.4538 43.695C39.9656 43.695 39.5581 43.6047 39.1975 43.4466L36.7882 48.9416C37.9511 49.4514 39.1842 49.695 40.4538 49.695V43.695ZM39.2152 43.4544C38.864 43.2977 38.7306 43.1506 38.6724 43.0686L33.7801 46.5422C34.554 47.6321 35.5983 48.4108 36.7705 48.9338L39.2152 43.4544ZM38.684 43.085C38.6417 43.0246 38.611 42.9653 38.611 42.8103H32.611C32.611 44.1435 32.9906 45.4143 33.7686 46.5258L38.684 43.085ZM35.611 45.8103H37.3073V39.8103H35.611V45.8103ZM34.3073 42.8103C34.3073 44.4296 34.9567 45.9348 36.2947 46.9969L40.0251 42.2975C40.0789 42.3402 40.1724 42.4374 40.2417 42.5866C40.3082 42.73 40.3073 42.8243 40.3073 42.8103H34.3073ZM36.3214 47.0178C37.5663 47.9833 39.0428 48.3152 40.4538 48.3152V42.3152C40.2055 42.3152 40.0647 42.2858 40.0027 42.2678C39.9479 42.2518 39.9598 42.2467 39.9983 42.2765L36.3214 47.0178ZM40.4538 48.3152C41.695 48.3152 43.1259 48.0704 44.3251 47.1525L40.6782 42.388C40.8057 42.2904 40.8905 42.2723 40.8623 42.2798C40.8281 42.2889 40.7031 42.3152 40.4538 42.3152V48.3152ZM44.3251 47.1525C45.5826 46.1899 46.2136 44.7925 46.2136 43.2849H40.2136C40.2136 43.2133 40.2291 43.0408 40.3303 42.8298C40.4336 42.6142 40.5741 42.4677 40.6782 42.388L44.3251 47.1525ZM46.2136 43.2849C46.2136 41.8653 45.665 40.4478 44.3896 39.4615L40.7192 44.2078C40.5711 44.0933 40.4193 43.9171 40.3177 43.6935C40.2212 43.4813 40.2136 43.3232 40.2136 43.2849H46.2136ZM44.4093 39.4768C43.4806 38.7463 42.1945 38.2797 40.9976 37.9334L39.33 43.697C39.8314 43.842 40.197 43.972 40.4503 44.0801C40.7234 44.1965 40.7679 44.2463 40.6995 44.1925L44.4093 39.4768Z" fill="#F0FF4C" fill-opacity="0.8"/>
</g>
<path d="M34.6892 35.1028V37.1028H36.6892V35.1028H34.6892ZM30.5759 35.1028V33.1028H28.5759V35.1028H30.5759ZM30.5759 46.511V48.511H32.5759V46.511H30.5759ZM28.8972 46.511H26.8972V48.511H28.8972V46.511ZM28.8972 35.1028H30.8972V33.1028H28.8972V35.1028ZM24.7927 35.1028H22.7927V37.1028H24.7927V35.1028ZM24.7927 33.7141V31.7141H22.7927V33.7141H24.7927ZM34.6892 33.7141H36.6892V31.7141H34.6892V33.7141ZM34.6892 33.1028H30.5759V37.1028H34.6892V33.1028ZM28.5759 35.1028V46.511H32.5759V35.1028H28.5759ZM30.5759 44.511H28.8972V48.511H30.5759V44.511ZM30.8972 46.511V35.1028H26.8972V46.511H30.8972ZM28.8972 33.1028H24.7927V37.1028H28.8972V33.1028ZM26.7927 35.1028V33.7141H22.7927V35.1028H26.7927ZM24.7927 35.7141H34.6892V31.7141H24.7927V35.7141ZM32.6892 33.7141V35.1028H36.6892V33.7141H32.6892ZM40.2175 40.8069L40.7734 38.8857L40.77 38.8847L40.2175 40.8069ZM37.0534 39.2776L35.6925 40.7431L35.6993 40.7494L35.7061 40.7557L37.0534 39.2776ZM37.2732 34.5315L38.539 36.0799L38.5403 36.0789L37.2732 34.5315ZM42.7663 34.0481L41.878 35.84L41.8841 35.843L42.7663 34.0481ZM44.3659 35.4543L42.6718 36.5173L42.6793 36.5291L44.3659 35.4543ZM44.9372 37.4143V39.4143H46.9372V37.4143H44.9372ZM43.2409 37.4143H41.2409V39.4143H43.2409V37.4143ZM42.5027 35.5949L41.1608 37.078L41.1706 37.0868L42.5027 35.5949ZM38.4685 35.4807L39.7032 37.054L39.7059 37.052L38.4685 35.4807ZM38.4333 38.3283L37.159 39.8698L37.1702 39.879L37.1814 39.8881L38.4333 38.3283ZM40.6921 39.3127L40.1497 41.2378L40.1525 41.2385L40.6921 39.3127ZM43.1882 40.3059L42.1494 42.0149L42.1592 42.0209L42.1691 42.0267L43.1882 40.3059ZM44.5241 41.5627L42.8073 42.5886L42.8119 42.5963L42.8166 42.6039L44.5241 41.5627ZM43.7507 45.7551L44.969 47.3412L44.9762 47.3356L43.7507 45.7551ZM38.0466 46.1858L37.2317 48.0123L37.2435 48.0174L38.0466 46.1858ZM36.28 44.7971L34.6415 45.944L34.6492 45.9549L36.28 44.7971ZM35.6648 42.802V40.802H33.6648V42.802H35.6648ZM37.3611 42.802H39.3611V40.802H37.3611V42.802ZM38.2136 44.6389L36.9701 46.2053L36.979 46.2124L36.988 46.2193L38.2136 44.6389ZM42.6081 41.8264L41.3716 43.3983L41.3781 43.4034L41.3846 43.4085L42.6081 41.8264ZM40.77 38.8847C39.4426 38.5031 38.7309 38.1004 38.4007 37.7995L35.7061 40.7557C36.7002 41.6618 38.0979 42.2786 39.665 42.729L40.77 38.8847ZM38.4143 37.812C38.1631 37.5786 38.0691 37.3586 38.0691 37.0276H34.0691C34.0691 38.4778 34.6313 39.7577 35.6925 40.7431L38.4143 37.812ZM38.0691 37.0276C38.0691 36.6396 38.1854 36.3689 38.539 36.0799L36.0073 32.983C34.7554 34.0065 34.0691 35.3999 34.0691 37.0276H38.0691ZM38.5403 36.0789C38.914 35.7729 39.4814 35.5383 40.4197 35.5383V31.5383C38.7798 31.5383 37.2496 31.9658 36.0061 32.984L38.5403 36.0789ZM40.4197 35.5383C41.0363 35.5383 41.507 35.656 41.878 35.84L43.6546 32.2562C42.6546 31.7604 41.5608 31.5383 40.4197 31.5383V35.5383ZM41.8841 35.843C42.2739 36.0346 42.5122 36.2629 42.6718 36.5173L46.0601 34.3913C45.4697 33.4504 44.6416 32.7413 43.6486 32.2532L41.8841 35.843ZM42.6793 36.5291C42.8554 36.8055 42.9372 37.0859 42.9372 37.4143H46.9372C46.9372 36.3247 46.6382 35.2984 46.0526 34.3795L42.6793 36.5291ZM44.9372 35.4143H43.2409V39.4143H44.9372V35.4143ZM45.2409 37.4143C45.2409 36.1788 44.8261 34.9883 43.8347 34.1031L41.1706 37.0868C41.1907 37.1047 41.196 37.1138 41.2031 37.1314C41.2133 37.1565 41.2409 37.2393 41.2409 37.4143H45.2409ZM43.8445 34.1119C42.8721 33.2321 41.6359 32.927 40.4197 32.927V36.927C40.9964 36.927 41.1489 37.0672 41.1608 37.078L43.8445 34.1119ZM40.4197 32.927C39.3128 32.927 38.1685 33.1712 37.2311 33.9094L39.7059 37.052C39.706 37.0519 39.8624 36.927 40.4197 36.927V32.927ZM37.2337 33.9074C36.2324 34.6932 35.7741 35.8106 35.7741 37.0012H39.7741C39.7741 36.9571 39.7781 36.9357 39.7787 36.9325C39.7792 36.9302 39.7768 36.9425 39.767 36.964C39.757 36.986 39.7434 37.0083 39.728 37.0275C39.7129 37.0464 39.7023 37.0547 39.7032 37.054L37.2337 33.9074ZM35.7741 37.0012C35.7741 38.1795 36.3087 39.1669 37.159 39.8698L39.7076 36.7869C39.6708 36.7564 39.6975 36.7687 39.7302 36.8344C39.7456 36.8655 39.7577 36.8994 39.7653 36.9329C39.7729 36.9661 39.7741 36.9902 39.7741 37.0012H35.7741ZM37.1814 39.8881C37.9514 40.5061 39.0262 40.9212 40.1497 41.2378L41.2345 37.3877C40.237 37.1066 39.8058 36.8654 39.6852 36.7686L37.1814 39.8881ZM40.1525 41.2385C41.1328 41.5132 41.7707 41.7848 42.1494 42.0149L44.227 38.5968C43.4104 38.1004 42.3842 37.7098 41.2318 37.3869L40.1525 41.2385ZM42.1691 42.0267C42.5571 42.2565 42.7292 42.4579 42.8073 42.5886L46.241 40.5368C45.7449 39.7066 45.0264 39.0701 44.2074 38.585L42.1691 42.0267ZM42.8166 42.6039C42.8901 42.7245 42.9636 42.9177 42.9636 43.259H46.9636C46.9636 42.2995 46.7441 41.3618 46.2317 40.5215L42.8166 42.6039ZM42.9636 43.259C42.9636 43.6877 42.8375 43.9324 42.5252 44.1745L44.9762 47.3356C46.2811 46.3239 46.9636 44.9045 46.9636 43.259H42.9636ZM42.5324 44.169C42.1724 44.4455 41.5644 44.6867 40.5075 44.6867V48.6867C42.1577 48.6867 43.7119 48.3068 44.969 47.3412L42.5324 44.169ZM40.5075 44.6867C39.8891 44.6867 39.344 44.5708 38.8497 44.3541L37.2435 48.0174C38.2726 48.4687 39.3681 48.6867 40.5075 48.6867V44.6867ZM38.8615 44.3593C38.3734 44.1415 38.0882 43.8892 37.9108 43.6392L34.6492 45.9549C35.3038 46.8769 36.1963 47.5503 37.2317 48.0122L38.8615 44.3593ZM37.9185 43.6502C37.7535 43.4146 37.6648 43.1534 37.6648 42.802H33.6648C33.6648 43.9388 33.9862 45.0077 34.6415 45.944L37.9185 43.6502ZM35.6648 44.802H37.3611V40.802H35.6648V44.802ZM35.3611 42.802C35.3611 44.1393 35.8887 45.3469 36.9701 46.2053L39.4571 43.0724C39.4246 43.0466 39.4083 43.0283 39.4011 43.0193C39.3943 43.0108 39.3909 43.0049 39.3883 42.9993C39.3853 42.9928 39.3611 42.9402 39.3611 42.802H35.3611ZM36.988 46.2193C38.0093 47.0114 39.2485 47.3069 40.5075 47.3069V43.3069C39.8565 43.3069 39.5664 43.157 39.4392 43.0584L36.988 46.2193ZM40.5075 47.3069C41.6319 47.3069 42.8133 47.0831 43.771 46.3501L41.3398 43.1738C41.3483 43.1673 41.1645 43.3069 40.5075 43.3069V47.3069ZM43.771 46.3501C44.7676 45.5873 45.2673 44.4906 45.2673 43.2766H41.2673C41.2673 43.307 41.2645 43.316 41.2661 43.3083C41.2679 43.2997 41.2733 43.2797 41.2858 43.2537C41.2984 43.2275 41.3135 43.2048 41.3274 43.188C41.3409 43.1717 41.3476 43.1678 41.3398 43.1738L43.771 46.3501ZM45.2673 43.2766C45.2673 42.1212 44.8284 41.0151 43.8316 40.2443L41.3846 43.4085C41.3759 43.4017 41.3571 43.3854 41.3353 43.3583C41.3133 43.3307 41.295 43.3005 41.2818 43.2714C41.2541 43.2105 41.2673 43.1976 41.2673 43.2766H45.2673ZM43.8447 40.2545C43.0791 39.6522 41.9561 39.2279 40.7734 38.8857L39.6616 42.7281C40.7875 43.0538 41.2583 43.3092 41.3716 43.3983L43.8447 40.2545Z" fill="#EAFF00"/>
<path d="M34.6422 35.0704V36.0704H35.6422V35.0704H34.6422ZM30.5289 35.0704V34.0704H29.5289V35.0704H30.5289ZM30.5289 46.4786V47.4786H31.5289V46.4786H30.5289ZM28.8502 46.4786H27.8502V47.4786H28.8502V46.4786ZM28.8502 35.0704H29.8502V34.0704H28.8502V35.0704ZM24.7457 35.0704H23.7457V36.0704H24.7457V35.0704ZM24.7457 33.6817V32.6817H23.7457V33.6817H24.7457ZM34.6422 33.6817H35.6422V32.6817H34.6422V33.6817ZM34.6422 34.0704H30.5289V36.0704H34.6422V34.0704ZM29.5289 35.0704V46.4786H31.5289V35.0704H29.5289ZM30.5289 45.4786H28.8502V47.4786H30.5289V45.4786ZM29.8502 46.4786V35.0704H27.8502V46.4786H29.8502ZM28.8502 34.0704H24.7457V36.0704H28.8502V34.0704ZM25.7457 35.0704V33.6817H23.7457V35.0704H25.7457ZM24.7457 34.6817H34.6422V32.6817H24.7457V34.6817ZM33.6422 33.6817V35.0704H35.6422V33.6817H33.6422ZM40.1705 40.7745L40.4485 39.8139L40.4468 39.8134L40.1705 40.7745ZM37.0065 39.2452L36.326 39.978L36.3328 39.9842L37.0065 39.2452ZM37.2262 34.4991L37.8591 35.2733L37.8598 35.2728L37.2262 34.4991ZM42.7194 34.0157L42.2752 34.9116L42.2783 34.9131L42.7194 34.0157ZM44.319 35.4219L43.4719 35.9534L43.4757 35.9593L44.319 35.4219ZM44.8903 37.3819V38.3819H45.8903V37.3819H44.8903ZM43.194 37.3819H42.194V38.3819H43.194V37.3819ZM42.4557 35.5626L41.7848 36.3041L41.7897 36.3085L42.4557 35.5626ZM38.4215 35.4483L39.0389 36.235L39.0402 36.2339L38.4215 35.4483ZM38.3864 38.296L37.7492 39.0667L37.7548 39.0713L37.7604 39.0758L38.3864 38.296ZM40.6452 39.2803L40.3739 40.2429L40.3753 40.2432L40.6452 39.2803ZM43.1413 40.2735L42.6218 41.1281L42.6317 41.1339L43.1413 40.2735ZM44.4772 41.5303L43.6187 42.0433L43.6234 42.0509L44.4772 41.5303ZM43.7038 45.7227L44.3129 46.5158L44.3165 46.513L43.7038 45.7227ZM37.9996 46.1534L37.5922 47.0666L37.5981 47.0692L37.9996 46.1534ZM36.233 44.7647L35.4138 45.3382L35.4177 45.3436L36.233 44.7647ZM35.6178 42.7696V41.7696H34.6178V42.7696H35.6178ZM37.3141 42.7696H38.3141V41.7696H37.3141V42.7696ZM38.1666 44.6065L37.5449 45.3898L37.5538 45.3967L38.1666 44.6065ZM42.5612 41.794L41.9429 42.58L41.9494 42.5851L42.5612 41.794ZM40.4468 39.8134C39.0594 39.4146 38.1763 38.9583 37.6801 38.5061L36.3328 39.9842C37.1609 40.739 38.3871 41.3023 39.8943 41.7356L40.4468 39.8134ZM37.6869 38.5124C37.2332 38.091 37.0221 37.606 37.0221 36.9952H35.0221C35.0221 38.1656 35.4673 39.1806 36.326 39.978L37.6869 38.5124ZM37.0221 36.9952C37.0221 36.2973 37.281 35.746 37.8591 35.2733L36.5933 33.7249C35.566 34.5647 35.0221 35.6774 35.0221 36.9952H37.0221ZM37.8598 35.2728C38.4509 34.7887 39.259 34.5059 40.3727 34.5059V32.5059C38.9082 32.5059 37.6187 32.8852 36.5927 33.7254L37.8598 35.2728ZM40.3727 34.5059C41.1205 34.5059 41.7469 34.6497 42.2752 34.9116L43.1635 33.1197C42.3207 32.7019 41.3827 32.5059 40.3727 32.5059V34.5059ZM42.2783 34.9131C42.8189 35.1789 43.2046 35.5274 43.4719 35.9534L45.166 34.8904C44.6833 34.1211 44.0027 33.5322 43.1605 33.1182L42.2783 34.9131ZM43.4757 35.9593C43.7542 36.3964 43.8903 36.8632 43.8903 37.3819H45.8903C45.8903 36.4826 45.6455 35.6428 45.1623 34.8845L43.4757 35.9593ZM44.8903 36.3819H43.194V38.3819H44.8903V36.3819ZM44.194 37.3819C44.194 36.3775 43.8635 35.4789 43.1217 34.8166L41.7897 36.3085C42.0323 36.5251 42.194 36.8395 42.194 37.3819H44.194ZM43.1266 34.821C42.3943 34.1585 41.429 33.8946 40.3727 33.8946V35.8946C41.1093 35.8946 41.5327 36.076 41.7848 36.3041L43.1266 34.821ZM40.3727 33.8946C39.4033 33.8946 38.5059 34.109 37.8028 34.6627L39.0402 36.2339C39.2747 36.0493 39.6781 35.8946 40.3727 35.8946V33.8946ZM37.8041 34.6616C37.072 35.2362 36.7272 36.0483 36.7272 36.9688H38.7272C38.7272 36.5885 38.8452 36.387 39.0389 36.235L37.8041 34.6616ZM36.7272 36.9688C36.7272 37.8187 37.1043 38.5336 37.7492 39.0667L39.0235 37.5252C38.7895 37.3318 38.7272 37.1619 38.7272 36.9688H36.7272ZM37.7604 39.0758C38.3681 39.5636 39.2819 39.9352 40.3739 40.2429L40.9164 38.3178C39.8873 38.0279 39.2953 37.7432 39.0123 37.5161L37.7604 39.0758ZM40.3753 40.2432C41.3987 40.53 42.1337 40.8313 42.6218 41.128L43.6607 39.419C42.9535 38.9891 42.0244 38.6283 40.915 38.3174L40.3753 40.2432ZM42.6317 41.1339C43.1274 41.4275 43.4362 41.7377 43.6188 42.0433L45.3356 41.0174C44.944 40.362 44.3621 39.8343 43.6508 39.4131L42.6317 41.1339ZM43.6234 42.0509C43.8066 42.3515 43.9166 42.7308 43.9166 43.2266H45.9166C45.9166 42.4217 45.7337 41.6701 45.331 41.0097L43.6234 42.0509ZM43.9166 43.2266C43.9166 43.9595 43.6514 44.4979 43.091 44.9324L44.3165 46.513C45.3733 45.6936 45.9166 44.5679 45.9166 43.2266H43.9166ZM43.0946 44.9297C42.5103 45.3785 41.6658 45.6544 40.4606 45.6544V47.6544C41.9624 47.6544 43.28 47.3091 44.3129 46.5158L43.0946 44.9297ZM40.4606 45.6544C39.7119 45.6544 39.0292 45.5129 38.4012 45.2375L37.5981 47.0692C38.4935 47.4618 39.4514 47.6544 40.4606 47.6544V45.6544ZM38.4071 45.2402C37.7822 44.9614 37.3452 44.6037 37.0484 44.1858L35.4177 45.3436C35.953 46.0976 36.6937 46.6657 37.5922 47.0666L38.4071 45.2402ZM37.0523 44.1912C36.7647 43.7805 36.6178 43.3174 36.6178 42.7696H34.6178C34.6178 43.7101 34.881 44.5771 35.4138 45.3382L37.0523 44.1912ZM35.6178 43.7696H37.3141V41.7696H35.6178V43.7696ZM36.3141 42.7696C36.3141 43.825 36.72 44.7349 37.5449 45.3897L38.7884 43.8233C38.4766 43.5757 38.3141 43.2611 38.3141 42.7696H36.3141ZM37.5538 45.3967C38.3516 46.0154 39.3535 46.2745 40.4606 46.2745V44.2745C39.6575 44.2745 39.1301 44.0882 38.7795 43.8163L37.5538 45.3967ZM40.4606 46.2745C41.4681 46.2745 42.4001 46.0718 43.1163 45.5236L41.9006 43.9355C41.6676 44.1139 41.2344 44.2745 40.4606 44.2745V46.2745ZM43.1163 45.5236C43.8518 44.9606 44.2204 44.1647 44.2204 43.2442H42.2204C42.2204 43.5776 42.1143 43.772 41.9006 43.9355L43.1163 45.5236ZM44.2204 43.2442C44.2204 42.353 43.891 41.5583 43.1729 41.003L41.9494 42.5851C42.1102 42.7094 42.2204 42.8815 42.2204 43.2442H44.2204ZM43.1795 41.0081C42.5769 40.5341 41.617 40.152 40.4485 39.8139L39.8926 41.7351C41.0327 42.0649 41.6665 42.3625 41.9429 42.58L43.1795 41.0081Z" fill="black"/>
<defs>
<filter id="filter0_f" x="0.5" y="0.5" width="65" height="65" filterUnits="userSpaceOnUse" color-interpolation-filters="sRGB">
<feFlood flood-opacity="0" result="BackgroundImageFix"/>
<feBlend mode="normal" in="SourceGraphic" in2="BackgroundImageFix" result="shape"/>
<feGaussianBlur stdDeviation="2.25" result="effect1_foregroundBlur"/>
</filter>
<filter id="filter1_f" x="17.239" y="26.0466" width="35.1709" height="28.1484" filterUnits="userSpaceOnUse" color-interpolation-filters="sRGB">
<feFlood flood-opacity="0" result="BackgroundImageFix"/>
<feBlend mode="normal" in="SourceGraphic" in2="BackgroundImageFix" result="shape"/>
<feGaussianBlur stdDeviation="2.25" result="effect1_foregroundBlur"/>
</filter>
</defs>
</svg>
